<?xml version="1.0" encoding="UTF-8"?>
<!DOCTYPE svg PUBLIC "-//W3C//DTD SVG 1.1//EN" "http://www.w3.org/Graphics/SVG/1.1/DTD/svg11.dtd">
<svg xmlns="http://www.w3.org/2000/svg" version="1.1" width="1780px" height="371px" style="shape-rendering:geometricPrecision; text-rendering:geometricPrecision; image-rendering:optimizeQuality; fill-rule:evenodd; clip-rule:evenodd" xmlns:xlink="http://www.w3.org/1999/xlink">
<g><path style="opacity:0.988" fill="#e94335" d="M 152.5,184.5 C 125.274,169.883 98.2741,154.717 71.5,139C 58.2167,133.169 44.8833,133.003 31.5,138.5C 89.9405,104.441 148.607,70.6076 207.5,37C 238.897,27.786 261.397,37.9527 275,67.5C 281.481,92.3999 274.314,112.233 253.5,127C 220.104,146.696 186.437,165.863 152.5,184.5 Z"/></g>
<g><path style="opacity:0.99" fill="#0f9d57" d="M 596.5,231.5 C 583.896,236.508 571.229,236.675 558.5,232C 530.927,216.244 503.26,200.744 475.5,185.5C 441.06,165.108 406.393,144.941 371.5,125C 352.571,109.132 346.737,89.2985 354,65.5C 367.424,38.3466 388.924,28.5132 418.5,36C 479.46,70.147 540.127,104.814 600.5,140C 625.335,156.169 632.835,178.336 623,206.5C 617.204,218.131 608.371,226.464 596.5,231.5 Z"/></g>
<g><path style="opacity:0.959" fill="#666c71" d="M 778.5,74.5 C 821.5,74.5 864.5,74.5 907.5,74.5C 907.5,83.1667 907.5,91.8333 907.5,100.5C 873.5,100.5 839.5,100.5 805.5,100.5C 805.5,124.5 805.5,148.5 805.5,172.5C 836.167,172.5 866.833,172.5 897.5,172.5C 897.5,181.167 897.5,189.833 897.5,198.5C 866.833,198.5 836.167,198.5 805.5,198.5C 805.5,222.5 805.5,246.5 805.5,270.5C 839.5,270.5 873.5,270.5 907.5,270.5C 907.5,279.167 907.5,287.833 907.5,296.5C 864.5,296.5 821.5,296.5 778.5,296.5C 778.5,222.5 778.5,148.5 778.5,74.5 Z"/></g>
<g><path style="opacity:0.973" fill="#666c71" d="M 1556.5,93.5 C 1565.5,93.5 1574.5,93.5 1583.5,93.5C 1583.5,108.5 1583.5,123.5 1583.5,138.5C 1596.5,138.5 1609.5,138.5 1622.5,138.5C 1622.5,146.5 1622.5,154.5 1622.5,162.5C 1609.5,162.5 1596.5,162.5 1583.5,162.5C 1583.06,195.195 1583.56,227.862 1585,260.5C 1589.32,273.246 1598.15,278.08 1611.5,275C 1615.37,273.989 1619.03,272.489 1622.5,270.5C 1623.5,279.475 1623.83,288.475 1623.5,297.5C 1605.27,303.888 1587.94,302.055 1571.5,292C 1562.53,284.236 1557.7,274.402 1557,262.5C 1556.5,229.168 1556.33,195.835 1556.5,162.5C 1547.5,162.5 1538.5,162.5 1529.5,162.5C 1529.5,154.5 1529.5,146.5 1529.5,138.5C 1538.5,138.5 1547.5,138.5 1556.5,138.5C 1556.5,123.5 1556.5,108.5 1556.5,93.5 Z"/></g>
<g><path style="opacity:0.968" fill="#666c71" d="M 1144.5,133.5 C 1189.09,130.703 1217.59,150.703 1230,193.5C 1236.79,223.035 1231.45,250.035 1214,274.5C 1186.89,303.03 1155.72,308.53 1120.5,291C 1113.33,286.5 1107.5,280.667 1103,273.5C 1103.45,303.137 1103.62,332.804 1103.5,362.5C 1094.5,362.5 1085.5,362.5 1076.5,362.5C 1076.5,287.833 1076.5,213.167 1076.5,138.5C 1085.17,138.5 1093.83,138.5 1102.5,138.5C 1102.33,146.174 1102.5,153.841 1103,161.5C 1113.1,146.542 1126.93,137.209 1144.5,133.5 Z M 1149.5,157.5 C 1177.05,158.522 1194.88,172.188 1203,198.5C 1208.21,219.366 1204.88,238.699 1193,256.5C 1169.22,281.541 1144.22,282.875 1118,260.5C 1102.8,240.645 1098.8,218.645 1106,194.5C 1113.71,173.943 1128.21,161.61 1149.5,157.5 Z"/></g>
<g><path style="opacity:0.964" fill="#666c71" d="M 1311.5,133.5 C 1360.11,129.359 1389.28,151.026 1399,198.5C 1399.5,206.493 1399.67,214.493 1399.5,222.5C 1357.83,222.167 1316.16,222.5 1274.5,223.5C 1277.9,255.562 1295.56,273.228 1327.5,276.5C 1339.06,276.481 1349.39,272.981 1358.5,266C 1364.44,260.564 1369.78,254.731 1374.5,248.5C 1382.11,251.637 1389.44,255.304 1396.5,259.5C 1376.2,294.139 1346.2,307.306 1306.5,299C 1270.82,287.976 1251.32,263.81 1248,226.5C 1245.4,198.301 1253.57,173.801 1272.5,153C 1283.69,142.736 1296.69,136.236 1311.5,133.5 Z M 1319.5,157.5 C 1348.34,157.189 1365.67,171.022 1371.5,199C 1339.83,199.667 1308.17,199.667 1276.5,199C 1281.95,175.71 1296.29,161.877 1319.5,157.5 Z"/></g>
<g><path style="opacity:0.961" fill="#666c71" d="M 1690.5,133.5 C 1713.65,130.286 1734.32,135.786 1752.5,150C 1757.05,154.937 1760.72,160.437 1763.5,166.5C 1763.17,167.167 1762.83,167.833 1762.5,168.5C 1755.27,171.697 1748.11,175.03 1741,178.5C 1727.23,158.468 1708.73,152.635 1685.5,161C 1669.4,169.159 1667.4,179.826 1679.5,193C 1684.84,196.115 1690.51,198.448 1696.5,200C 1708.88,203.178 1721.21,206.511 1733.5,210C 1763.31,220.781 1773.47,241.281 1764,271.5C 1754.16,287.855 1739.66,297.355 1720.5,300C 1696.89,304.183 1675.55,299.183 1656.5,285C 1648.73,278.225 1642.89,270.059 1639,260.5C 1638.25,259.365 1638.42,258.365 1639.5,257.5C 1647.3,253.596 1655.3,250.262 1663.5,247.5C 1669.16,263.023 1680.16,272.523 1696.5,276C 1711.2,278.664 1724.37,275.498 1736,266.5C 1742.75,256.364 1741.59,247.198 1732.5,239C 1728.78,236.473 1724.78,234.473 1720.5,233C 1708.3,229.199 1695.96,225.866 1683.5,223C 1667.45,218.753 1655.29,209.586 1647,195.5C 1639.44,172.508 1645.94,154.675 1666.5,142C 1674.3,138.237 1682.3,135.404 1690.5,133.5 Z"/></g>
<g><path style="opacity:0.99" fill="#4284f3" d="M 152.5,184.5 C 186.94,204.892 221.607,225.059 256.5,245C 275.908,261.119 281.742,281.285 274,305.5C 260.185,331.984 238.685,341.484 209.5,334C 148.54,299.853 87.8731,265.186 27.5,230C 3.2902,214.04 -4.2098,192.207 5,164.5C 10.4066,152.259 19.24,143.593 31.5,138.5C 44.8833,133.003 58.2167,133.169 71.5,139C 98.2741,154.717 125.274,169.883 152.5,184.5 Z"/></g>
<g><path style="opacity:0.969" fill="#666c71" d="M 1487.5,136.5 C 1494.83,136.5 1502.17,136.5 1509.5,136.5C 1509.5,145.833 1509.5,155.167 1509.5,164.5C 1493.38,161.349 1478.72,164.516 1465.5,174C 1457.07,182.023 1452.24,191.856 1451,203.5C 1450.5,235.165 1450.33,266.832 1450.5,298.5C 1441.5,298.5 1432.5,298.5 1423.5,298.5C 1423.5,245.833 1423.5,193.167 1423.5,140.5C 1432.17,140.5 1440.83,140.5 1449.5,140.5C 1449.33,148.507 1449.5,156.507 1450,164.5C 1457.69,148.738 1470.19,139.404 1487.5,136.5 Z"/></g>
<g><path style="opacity:0.957" fill="#666c71" d="M 919.5,139.5 C 929.658,138.341 939.992,138.175 950.5,139C 963.79,157.746 976.956,176.579 990,195.5C 1002.83,176.667 1015.67,157.833 1028.5,139C 1039.17,138.333 1049.83,138.333 1060.5,139C 1042.17,164.667 1023.83,190.333 1005.5,216C 1024.75,242.084 1043.42,268.584 1061.5,295.5C 1050.83,296.833 1040.17,296.833 1029.5,295.5C 1016.52,275.868 1003.19,256.535 989.5,237.5C 976.513,256.796 963.513,276.13 950.5,295.5C 939.833,296.833 929.167,296.833 918.5,295.5C 936.833,268.833 955.167,242.167 973.5,215.5C 955.478,190.1 937.478,164.767 919.5,139.5 Z"/></g>
<g><path style="opacity:0.988" fill="#fabb04" d="M 475.5,185.5 C 503.26,200.744 530.927,216.244 558.5,232C 571.229,236.675 583.896,236.508 596.5,231.5C 538.557,265.812 480.224,299.645 421.5,333C 397.837,341.21 377.67,336.043 361,317.5C 348.096,298.201 347.429,278.534 359,258.5C 363.167,253 368,248.167 373.5,244C 407.364,224.235 441.364,204.735 475.5,185.5 Z"/></g>
</svg>
